<svg width="37" height="37" viewBox="0 0 37 37" fill="none" xmlns="http://www.w3.org/2000/svg">
<path d="M15.5885 0.5L25.9313 6.47142L6.14934 18.0152C5.2012 16.3737 5.76333 14.2743 7.40489 13.3261L19.1695 6.53101L15.5885 4.46349L3.43248 11.4817V23.4849L30.216 8.01508L29.0323 6.20013H36.1833L33.3229 12.7791L32.0934 10.8938L31.1769 11.4229V27.5L15.5885 36.5L5.00494 30.5136L8.48211 28.4493L8.49469 28.4565L13.5235 25.4922L25.1886 18.7546C26.1368 20.3962 25.5746 22.4956 23.9331 23.4437L11.8816 30.4045L15.5885 32.5365L27.7444 25.5183V13.4042L1.57245 28.5113L0 27.5V9.5L15.5885 0.5Z" fill="black"/>
</svg>
