<svg width="36" height="36" viewBox="0 0 36 36" fill="none" xmlns="http://www.w3.org/2000/svg">
<path d="M14.7169 3H19.2497V9.47272H14.7169C9.90662 9.65765 6.11387 13.6337 6.29889 18.442C6.39139 23.0654 10.1841 26.7641 14.7169 26.8566H19.2497V21.3085H13.7919V14.8358H25.5401V33.3293H14.7169C6.29889 33.0519 -0.269038 26.1168 0.00848012 17.7023C0.193492 9.65765 6.66891 3.18493 14.7169 3Z" fill="#3B82F6"/>
<path d="M35.0457 15.8346C36.2739 17.1024 36.3616 19.2759 35.0457 20.5438C33.7299 21.8116 31.6245 21.8116 30.3087 20.5438C29.6946 19.9098 29.3437 19.0042 29.3437 18.1892C29.3437 16.3779 30.7473 14.8384 32.5895 14.8384C32.5895 14.8384 32.5895 14.8384 32.6772 14.8384C33.5544 14.8384 34.4317 15.2006 35.0457 15.8346Z" fill="#3B82F6"/>
</svg>
